<svg width="100%" class="hidden">
  <symbol xmlns="http://www.w3.org/2000/svg" viewBox="0 0 200 200" id="blob">
    <path 
      d="M34,-41.7C47.4,-37.2,63.7,-31.6,70.7,-20.5C77.7,-9.4,75.5,7.2,67.9,19.4C60.2,31.6,47.2,39.3,35,49.5C22.8,59.6,11.4,72.1,-0.8,73.1C-13,74.2,-25.9,63.9,-38.9,54C-52,44.1,-65,34.8,-67.7,22.9C-70.4,11,-62.7,-3.4,-57.8,-18.9C-52.9,-34.3,-50.9,-50.8,-41.7,-56.7C-32.6,-62.7,-16.3,-58.1,-3,-54C10.4,-49.9,20.7,-46.3,34,-41.7Z" 
      transform="translate(100 100)">
    </path>
    <image width="200px" height="200px" class="home__blob-img" x='12' y='18' xlink:href="perfil.png" />
  </symbol>
</svg>