<svg id="svg" xmlns="http://www.w3.org/2000/svg" xmlns:xlink="http://www.w3.org/1999/xlink" width="400" height="400" viewBox="0, 0, 400,400"><g id="svgg"><path id="path0" d="M116.994 25.907 C 71.529 33.512,45.506 78.206,63.421 117.917 L 65.301 122.083 65.943 115.033 C 66.785 105.783,67.926 101.117,71.507 92.275 C 74.727 84.324,74.858 84.280,77.039 90.417 C 80.478 100.089,87.764 110.165,96.116 116.797 C 101.495 121.068,101.387 121.161,101.840 111.875 C 102.180 104.918,102.697 102.612,105.438 95.833 C 107.199 91.479,108.900 85.800,109.219 83.213 C 112.759 54.452,148.125 50.400,156.268 77.822 C 157.866 83.202,157.897 98.940,156.322 105.013 L 155.143 109.555 158.125 113.617 C 161.783 118.600,186.599 141.821,187.848 141.430 C 192.197 140.070,203.992 118.607,206.725 107.083 C 218.689 56.626,174.162 16.344,116.994 25.907 M115.318 97.917 C 109.992 108.894,110.157 130.032,115.603 134.496 C 122.334 140.013,127.519 145.525,129.600 149.376 L 131.964 153.750 126.572 148.750 C 123.268 145.685,115.341 140.246,106.093 134.697 C 89.346 124.649,84.040 120.463,79.929 114.057 L 77.152 109.728 76.401 112.572 C 75.282 116.813,76.280 126.802,78.274 131.310 C 80.412 136.144,80.763 135.895,73.750 134.530 C 70.542 133.906,64.744 133.381,60.866 133.364 L 53.816 133.333 59.764 138.763 C 73.477 151.278,72.740 154.389,53.672 164.456 C 42.391 170.412,33.353 175.887,33.341 176.773 C 33.337 177.061,36.615 177.467,40.625 177.675 C 57.090 178.532,64.030 187.743,59.626 202.893 C 57.822 209.098,58.069 209.197,64.319 204.762 C 74.911 197.244,85.446 191.854,98.727 187.158 C 101.189 186.287,99.072 185.283,92.173 184.050 L 86.393 183.017 90.137 179.627 C 97.215 173.220,112.739 167.489,122.917 167.527 L 127.083 167.543 120.833 169.659 C 117.396 170.824,111.774 173.122,108.341 174.766 C 101.392 178.094,101.178 177.683,111.458 180.778 C 118.498 182.897,118.691 183.307,113.958 186.094 C 109.090 188.962,102.298 195.993,99.589 200.971 C 96.872 205.963,96.972 206.127,101.699 204.405 C 124.517 196.092,142.331 215.224,129.511 234.275 C 125.870 239.685,125.701 239.433,132.500 238.750 C 135.708 238.428,138.333 238.416,138.333 238.724 C 138.333 239.941,133.231 246.604,131.057 248.226 L 128.750 249.947 132.691 249.974 C 139.383 250.018,152.608 243.200,156.539 237.679 C 159.026 234.186,158.822 233.562,154.983 232.914 C 149.574 232.000,148.865 230.740,149.497 223.168 C 150.074 216.253,150.025 216.117,147.535 217.671 C 142.896 220.568,140.939 211.735,144.256 202.870 C 145.221 200.289,145.690 197.889,145.297 197.536 C 144.325 196.660,137.298 195.006,134.423 194.975 C 130.611 194.933,133.809 193.660,140.833 192.422 C 144.271 191.816,151.771 191.305,157.500 191.285 C 173.210 191.232,175.540 193.137,171.350 202.610 L 169.293 207.261 176.522 207.767 C 191.824 208.837,198.747 214.366,197.166 224.252 C 196.557 228.061,196.942 228.182,200.959 225.453 C 207.900 220.737,215.800 206.080,216.473 196.670 C 217.110 187.774,216.607 187.360,211.285 192.393 C 206.045 197.349,205.141 197.581,204.455 194.150 C 203.984 191.797,199.988 187.500,198.269 187.500 C 197.846 187.500,197.500 185.290,197.500 182.588 C 197.500 169.589,191.353 159.522,172.688 141.949 C 147.645 118.371,140.000 107.440,140.000 95.207 C 140.000 91.434,138.471 94.194,136.678 101.205 C 132.740 116.603,133.623 118.756,150.086 133.881 C 163.105 145.841,169.383 152.798,173.283 159.583 C 174.716 162.077,173.268 160.872,167.539 154.803 C 163.326 150.340,153.979 141.644,146.769 135.478 C 128.124 119.535,122.010 110.937,119.613 97.289 L 118.552 91.250 115.318 97.917 M300.000 143.608 C 294.070 146.069,289.955 148.676,278.750 157.071 C 265.263 167.175,262.273 167.184,267.814 157.102 C 271.372 150.629,270.983 150.469,264.050 155.552 C 249.750 166.035,235.995 184.619,233.620 196.667 L 233.045 199.583 239.120 193.962 C 255.877 178.457,281.596 166.467,297.500 166.747 C 300.873 166.806,301.128 166.698,290.880 169.549 C 265.562 176.592,247.393 190.780,221.787 223.506 L 217.414 229.095 221.613 231.223 C 225.076 232.978,234.649 240.084,240.994 245.610 C 242.288 246.737,242.927 245.793,248.768 234.131 C 272.967 185.813,293.075 171.028,320.728 181.220 C 328.337 184.025,331.409 183.789,340.493 179.701 C 351.700 174.657,358.790 173.149,371.874 173.025 C 385.372 172.897,385.202 173.148,376.466 166.241 C 357.130 150.951,331.928 145.884,309.414 152.759 C 302.164 154.972,298.333 154.979,298.333 152.777 C 298.333 151.233,302.118 146.581,304.996 144.586 C 310.251 140.944,307.647 140.435,300.000 143.608 M306.042 166.421 C 305.010 166.620,303.323 166.620,302.292 166.421 C 301.260 166.223,302.104 166.060,304.167 166.060 C 306.229 166.060,307.073 166.223,306.042 166.421 M163.193 168.677 C 168.062 171.195,175.421 180.690,173.777 182.334 C 172.687 183.424,163.990 178.030,162.049 175.061 C 158.013 168.889,158.487 166.244,163.193 168.677 M39.619 198.542 C 28.651 209.576,21.719 221.345,18.288 234.760 C 15.647 245.086,15.898 245.921,20.398 241.773 C 28.200 234.581,29.016 237.364,24.317 255.137 C 17.031 282.697,20.063 310.003,32.815 331.667 C 38.531 341.379,50.270 354.523,47.987 348.655 C 46.679 345.292,45.651 338.340,46.162 336.305 C 47.040 332.805,49.100 333.734,58.247 341.752 C 103.633 381.537,167.046 373.722,204.325 323.750 C 210.795 315.077,217.692 303.638,217.352 302.144 C 216.970 300.470,187.374 276.439,186.689 277.247 C 186.377 277.615,184.284 280.542,182.037 283.750 C 158.695 317.083,125.651 325.694,105.156 303.784 C 86.398 283.732,88.609 245.612,110.008 220.126 C 115.534 213.544,115.518 213.333,109.499 213.333 C 103.843 213.333,102.028 214.066,92.650 220.135 C 83.272 226.204,83.641 226.487,85.370 214.537 C 86.143 209.199,86.562 204.618,86.302 204.357 C 84.261 202.317,67.004 214.506,55.689 225.980 C 51.249 230.483,47.349 234.167,47.023 234.167 C 45.901 234.167,47.379 212.067,49.114 202.917 C 51.790 188.799,50.084 188.013,39.619 198.542 M153.839 202.151 C 151.278 208.826,154.780 216.009,164.238 223.480 C 172.522 230.023,174.570 233.283,175.406 241.250 C 176.767 254.217,179.278 257.432,203.673 277.437 C 232.793 301.317,232.054 300.163,232.846 322.964 C 233.692 347.271,238.851 358.550,251.906 364.628 C 258.142 367.531,258.810 367.242,255.840 362.926 C 249.165 353.224,249.079 342.819,255.603 334.265 L 257.821 331.357 259.325 337.554 C 263.852 356.200,276.243 369.160,293.870 373.685 C 310.324 377.910,334.920 372.328,346.856 361.661 L 350.417 358.480 341.250 358.615 C 331.562 358.758,325.380 356.834,319.167 351.744 L 317.083 350.037 320.595 350.019 C 337.855 349.927,359.160 340.727,367.408 329.802 C 387.066 303.765,365.013 266.525,330.033 266.693 L 324.583 266.719 328.623 268.698 C 345.491 276.962,344.732 296.325,327.220 304.441 C 320.085 307.748,306.975 310.052,302.164 308.845 L 300.022 308.307 302.848 304.362 C 311.710 291.993,310.097 273.722,299.152 262.485 C 293.851 257.042,293.750 257.102,293.750 265.687 C 293.750 276.664,288.401 282.500,278.339 282.500 C 271.865 282.500,268.226 280.162,243.291 259.981 C 216.580 238.363,216.890 238.546,204.790 237.166 C 193.644 235.895,192.584 235.039,190.485 225.601 C 189.198 219.820,187.743 217.385,184.482 215.558 C 183.968 215.269,179.727 214.460,175.058 213.759 C 163.290 211.991,157.629 208.706,156.142 202.781 C 155.576 200.529,154.568 200.253,153.839 202.151 " stroke="none" fill="#705BD7" fill-rule="evenodd"></path></g></svg>